<?xml version="1.0" standalone="no"?>
<!DOCTYPE svg PUBLIC "-//W3C//DTD SVG 20010904//EN"
 "http://www.w3.org/TR/2001/REC-SVG-20010904/DTD/svg10.dtd">
<svg version="1.0" xmlns="http://www.w3.org/2000/svg"
 width="2000.000000pt" height="2000.000000pt" viewBox="50 50 800.000000 800.000000"
 preserveAspectRatio="xMidYMid meet">

<g transform="translate(0.000000,900.000000) scale(0.100000,-0.100000)"
fill="#000000" stroke="none">
<path d="M1191 8448 c-145 -20 -306 -104 -420 -219 -119 -119 -198 -274 -220
-432 -6 -43 -11 -182 -11 -309 0 -193 2 -229 14 -225 8 3 58 39 113 80 382
288 800 463 1288 538 110 17 3165 25 3149 9 -6 -6 -146 -110 -310 -230 l-299
-219 -432 -1 c-238 0 -433 -4 -433 -8 0 -4 28 -21 62 -37 94 -45 223 -141 318
-236 251 -253 422 -628 481 -1064 17 -119 17 -409 0 -510 -64 -396 -233 -721
-541 -1039 -128 -132 -246 -236 -396 -349 -223 -168 -354 -370 -386 -596 -19
-133 26 -254 160 -434 113 -152 259 -291 537 -512 303 -240 492 -402 579 -496
67 -72 217 -301 279 -424 67 -134 130 -368 168 -630 15 -98 19 -415 6 -508
l-7 -57 1462 2 c1637 4 1493 -3 1662 77 202 95 361 288 423 512 17 61 18 243
18 3369 0 3126 -1 3308 -18 3369 -43 156 -137 304 -260 409 -68 58 -207 132
-302 159 -57 17 -244 18 -3340 19 -1944 1 -3306 -2 -3344 -8z m5919 -1228 l0
-610 618 -2 617 -3 3 -317 2 -318 -617 -2 -618 -3 -3 -618 -2 -617 -308 2
-307 3 -3 618 -2 617 -625 0 -625 0 2 318 3 317 623 3 622 2 0 603 c0 332 3
607 7 610 3 4 143 7 310 7 l303 0 0 -610z"/>
<path d="M1800 7489 c-47 -4 -125 -19 -173 -33 -277 -82 -486 -273 -632 -578
-254 -532 -228 -1171 74 -1790 261 -536 646 -894 1091 -1015 83 -23 115 -26
255 -27 135 0 173 3 245 22 329 87 573 334 726 735 252 659 104 1490 -370
2073 -344 425 -792 650 -1216 613z"/>
<path d="M540 3185 c0 -622 4 -1045 9 -1045 5 0 45 15 89 34 288 123 590 201
937 241 176 20 633 39 778 31 83 -4 117 -3 117 5 0 7 -21 33 -46 59 -224 231
-354 579 -316 846 15 102 58 237 107 334 20 40 35 73 33 74 -2 2 -50 -1 -108
-6 -164 -13 -377 -1 -585 33 -365 59 -698 197 -941 390 -34 27 -65 49 -68 49
-3 0 -6 -470 -6 -1045z"/>
<path d="M2010 2159 c-205 -21 -490 -86 -644 -145 -302 -117 -630 -330 -790
-514 l-39 -44 6 -136 c6 -158 21 -222 82 -345 75 -154 206 -283 361 -356 169
-80 21 -73 1693 -77 l1494 -3 -6 128 c-11 213 -63 408 -148 560 -88 155 -302
345 -760 672 -260 186 -259 185 -464 225 -217 43 -560 58 -785 35z"/>
</g>
</svg>
